<mxfile host="65bd71144e">
    <diagram id="PN9jI9cTvql83StQF9vA" name="Page-1">
        <mxGraphModel dx="611" dy="473" grid="1" gridSize="10" guides="1" tooltips="1" connect="1" arrows="1" fold="1" page="1" pageScale="1" pageWidth="827" pageHeight="1169" math="0" shadow="0">
            <root>
                <mxCell id="0"/>
                <mxCell id="1" parent="0"/>
                <mxCell id="3" value="" style="whiteSpace=wrap;html=1;aspect=fixed;fillColor=#F5F5F5;rounded=1;shadow=1;sketch=0;glass=0;" vertex="1" parent="1">
                    <mxGeometry x="180" y="70" width="140" height="140" as="geometry"/>
                </mxCell>
                <mxCell id="2" value="" style="shape=image;verticalLabelPosition=bottom;labelBackgroundColor=#ffffff;verticalAlign=top;aspect=fixed;imageAspect=0;image=data:image/png,iVBORw0KGgoAAAANSUhEUgAAAgAAAAIACAYAAAD0eNT6AAAABHNCSVQICAgIfAhkiAAAAAlwSFlzAAAOcQAADnEBRp7WIAAAABl0RVh0U29mdHdhcmUAd3d3Lmlua3NjYXBlLm9yZ5vuPBoAACAASURBVHic7d15nCVVfffxb93uWZgZRoZB2ZegiAoiKBjX0aCWUZMYn4fEPJRi1NSjSXCJSdTEGNQIblGjj49L6nnyJGK5gZiICpaoiIAbICLIjneGnQFmn+np6b71/HFvQ8/Q2723Tp1z6nzer9e8ZGa6T/+Snr73W+f8zjlRWZYCAABhadkuAAAA1I8AAABAgAgAAAAEiAAAAECACAAAAASIAAAAQIAIAAAABIgAAABAgAgAAAAEiAAAAECARuf6yzhJHyvpxGm/jpAUmS/LeaWkuyRdK+lXkn5R5NlldksCAGDhopnuAoiT9PGS/l3SM+suyGMXS3prkWe/tF0IAADz2S0AxEkaSXqLpLMk7WWrKI91JGXqBoEx28UAADCbhwJAnKSjkr4t6UVWK2qGcyX9cZFnXLUIAHDS9CbAd4o3/6qcIumjtosAAGA2UVmWipP0OEk/l7TYdkENc1qRZ2fbLgIAgD214iRdJOk/xJu/CX9tuwAAAGbSkvQMScfbLqShnhIn6Um2iwAAYE8tdff3w5zUdgEAAOyJAGDe79suAACAPREAzDsgTtKDbRcBAMB0LUmPsV1EAJ5muwAAAKZrSbradhEBIAAAAJzSknSF7SICQAAAADilJelK20UEgD4LAIBTWpJ+LGnCdiENtz+NgAAAl7SKPFsr6YO2CwkAywAAAGdMXQb0T5KusVlIAAgAAABntCSpyLNxSa+RtMtuOY1GAAAAOOOh64CLPLta0ssl3W2vnEajERAA4IzW9N8UeXaBpGMkfdFOOY1GIyAAwBmtPf+gyLMNRZ4lkv5Q0rmS2nUX1WAsAwAAnBCVZTnvB8VJulrdKewjJEWGa7LtAElnGBr7fUWemRobAIAFW1AACEmcpIslbZG02MDw3yry7PcMjAsAQF8esQQQut6OiF8ZGp5GQACAEwgAMzN1PDKNgAAAJxAAZmbyfgQaAQEA1hEAZkYAAAA0GgFgZr+SNG5obAIAAMA6AsAMaAQEADQdAWB2NAICABqLADA7+gAAAI1FAJgdAQAA0FgEgNnRCAgAaCwCwCxoBAQANBkBYG40AgIAGokAMDf6AAAAjUQAmBsBAADQSASAudEICABoJALAHGgEBAA0FQFgfjQCAgAahwAwP/oAAACNQwCYHwEAANA4BID50QgIAGgcAsA8aAQEADQRAWBhaAQEADQKAWBh6AMAADQKAWBhCAAAgEYhACyMyUZA+gAAALUjACyA4UZAZgAAALUjACwcjYAAgMYgACwcfQAAgMYgACwcAQAA0BgEgIWjERAA0BgEgAWiERAA0CQEgP7QCAgAaAQCQH/oAwAANAIBoD8EAABAIxAA+kMjIACgEQgAfeg1Al5raHhmAAAAtSEA9O8KQ+PSCAgAqA0BoH/0AQAAvEcA6B8BAADgPQJA/2gEBAB4jwDQJxoBAQBNQAAYDI2AAACvjdouwFPG+gCOWLXxBbpkaWFqfABAY5WSNmrN2M6FfDABYDDGAsBzjlz3H6bGBgAE4JKl96vbr3aOpHO0Zuz+mT6MJYDBGGsEvGn9ahPDAgDCsZ+k35H0aUm/0SVL36lLli7Z84MIAAMw2Qh4MwEAAFCdFZI+IOmnumTpgdP/ggAwOCONgBt2LNX925aZGBoAEK6nSLpMlyw9fOoPCACDM9YHcPP6fU0NDQAI129J+rIuWToqEQCGYS4A3M8yAADAiGdIeqdEABgGjYAAAB+9TZcsXUYAGBCNgAAAT62SdCoBYDg0AgIAfPQiAsBwaAQEAPjoeALAcGgEBAD46BACwHBoBAQA+GgnAWAINAICADy1nQAwPBoBAQC+uYMAMDwaAQEAvmkTAIZnLADQBwAAMIQAUAFjjYDsBAAAGEIAGBaNgAAADxEAKkIjIADAJwSAitAICADwyVoCQDVoBAQA+OJerRnbQQCoBo2AAABftCWJAFABGgEBAB5pSwSAKhlZBqAREABQsbZEAKiSkZ0AEo2AAIBKtSUCQJVoBAQA+KAtEQCqRCMgAMAHbYkAUBkaAQEAnlgrEQCqRiMgAMBl92rN2A6JAFA1GgEBAC5rT/0HAaBaNAICAFzWnvoPAkC1aAQEALisPfUfBIAK0QgIAHBce+o/CADVoxEQAOCq9tR/EACqRyMgAMBV7an/IABUj0ZAAICr1k79BwGgejQCAgBc9NAZABIBoHI0AgIAHNWe/hsCgBk0AgIAXNOe/hsCgBk0AgIAXNOe/hsCgBk0AgIAXNOe/hsCgBk0AgIAXNOe/hsCgAE0AgIAHNSe/hsCgDk0AgIAXLJ2+m9GbVURgCskpSYGvnn9vtpv+XYTQ7thdF9Jk9LEFkkd29VYEqlc8VSV+7xIKiek8bsVjd8ljd+laOw2qdxlu8AaRSr3epzK5Seo3OtoRWO3KNp6laIdNyusfx+Ryr0eLy0+UOXiA6RF+6scWanWposVbblcKidtF1if1jJ1Vr9C5cpndX8+yl1SOa5oYoui+7+saOw3tit00W5nAEgEAJOMNgI+84g7TA1vx+ID1Fn9CnVW/5HKvU/q/WEpTW5TNPGgovvP1cjdn5Z23Wu1TNPKR/2OOvudos6qF0uL9p/xY6KxtlrrzlDrgfNqrq5e5d7P0OSh/6ByxVOlkb0f+QGT2xRt+4VGbj9L0eYf1V9gjcp9XqTJw85Qufwpj/i7ziFvl3bdr9aGb6t1/7mKNv3AQoX1KFc8TZ3HvEad/U6Z+d+EJB36TrUevECtuz+laPOl9RbotvaefxCVZWmhjuaLk3SxpC2SFlc99tMPu1Pvf8n3qx7WjtHVmnjc51SuepHmXZHq7FRr/ZfUuuujisbadVRXo5YmDztDnYPftuDPiLZeoZG171K0+XKDdVnQWqrJw/5RnQP/UgtbpSzVuudzGll7htRp1sxYueJETR7+TypXPmfBn9O6+9MaWfv3jZsR6Bx4uiaP+EBfnxNtvlyjN5wiTW4xVJVXvqI1Y38y/Q/oATCERsD5lUuP0MSTv6dy1Yu1oH+KrSXq7P+nmnjyD1UuO8Z4fbUZWa7JJ3yprzd/qfvmMHHMhers+zJDhdWvXHasJo67XJ0D36SFvzxF6hzwRk085ccqlx9vsrxalSufo4ljv9PXm78kdQ78C0084auzPyF7qHPIO/p+85ekcuWzNPGEc6XWXgaq8k57zz8gAJhFI+AsyuUnaOLY76lc+tj+P3l0X0086fzueqjvWks0ccx31Vn10gEHiDT5uP+jctkTKy3LitYyTR79BZV7HTXQp5dLj9Tk0bk0srziwupXLn2cJo7+ohQNNoFY7hNr4tjvNSIETB7+T5o89B8G/vxy5bM0cXQ+8P8vG6S95x8QAMwydiKg1wcCja7SxJPOlxY9ZvAxFj1aE0/6lsolh1dXlwWdA96ocvmThxtkZIUmj/6KNLpPNUVZMnnYewYLhNOUSw7T5OH9Pyk6ZXRfTT7xa9LoqqGGKZc9UZMHvbmiouwol5+gzkFvHX6cfV6kySPOrKAir7X3/AMCgFnGGgF9PhJ48qA3SaOPGn6gxQeoc+jfDT+OLaOrNHnw31YyVLn0tzR5+PsrGcuGcuVz1TnwjZWM1dn/tSr3eWElY9kwedi7VS49spKxOgeeLo36+7DQOehN1Y316FdLLb9nTofU3vMPCABmcSLgnkZXqXNANS/0ktRZ/d+qCRMWTB7yjkpr7y4j+PkjPXn4P0mKKh7PRy119v2D6oYbWaHJg/+quvFqVC45VJ3Vr6huwJHl6uz336obzz9r9/wDP18tPEEj4CNNHnh6teuSrb3UefSp1Y1Xo87+r612wEWP7m6Z8020ePhlkD2Uy57k5dNeufKZwy2NzaBzQKoqw1VdOge8UYqq3aneecxrKh3PI484A0AiANSBRsBpyn1OrnzMzmMqfiOtw+hqI29QnVW/W/mYppXLjzXQoNWacc+86zr7vrz6QVvLeodr+aVc/YfVj7n3M7zvlRlQe6Y/JACYRyPgdCPVT9eXy57o3TJAueQgM+M+qvqAZVq5/AQz43o4G9I9D8PAuIurnVUwrVxymMolh9kuo0naM/0hAcA8GgGnKQ2l73KvJxgZ15jFhgLAkkONjGtS1dP/psc1qVx8iJmBZzlV0lXlyucaHDykY7Qf0p7pDwkA5tEIOJ2hJ3Xf9sGXix5tZuBF+8m79d7WUr/GNWXRfsZqLhftZ2RcU8pHGQwAHQLAFAKAYTQCTteSNGJkZO9mACY2mxk3GpUW+fbvApJULj7Y2NiRqX9vhpibASiZAZiGAFAPGgElSR1FO83c0uXbDEBk8FKjsuIuctTDZADQ+J3mxq6YyfX/aNu1koK8/6Y90x8SAOph9GZAn0Tbrzcz8F5+BQDtus/c2AQAPy0xOAMw7s/toSbX/5t+a+QcHnEGgEQAqIuxnQDeNQIaCgDl4gO92gkQGQwAzAD4yVgDYGe7NLHJzNgGmFz/DzQAzHgGgEQAqAuNgD3RjhuMje1VH8DkNnNX13rW8Y0eQztDop3+PP1LZtf/W5svMzS209qz/QUBoAY0Aj7M2BKAPOwDGDczC+Dbnm90laaWAFj/l9Rb/5/YYGRsx7Vn+wsCQH1oBJQUjd0slZNGxvZqBkAy1wdgaoshzDK0BBDt9CgAsP5vQnu2vyAA1IdGQEnq7GQnQI+pnQD0APipXHygmYF9mgFg/d+E9mx/QQCoD42APewE6DE2A0APgHcMHgLEDgAp4PV/iQDgBBoBp7AToMtQAGAGwD9GDwHaeZexsavE+r8x7dn+ggBQExoBHxbtMNgI6FEfQDRu6DAgH48DDlxpaAeAJMmTGQDW/42Z8QwAiQBQNxoBJUXbDW4F9KkPwNQSQDTq5fWvQVti6AwASZEnPQCs/xsx6xkAEgGgbjQCip0AU4weBrSYPgCfGFsCmNzmzSFArP8b0Z7rLwkA9aIRUOruBBi7zcjQfs0AmLsPgOOAPWMoAHjz9M/6vyntuf6SAFAvGgF7jJ0I6NMMgKGDgCQaAX1j7hAg1v8Dnv6XCADuoBFwGmM7AQ7yZydAZ7vB44AJAF4xdgiQJzsAWP83ZdYGQIkAYAONgGInwBRTOwHoAfCLuUOAQp8BCHr9X2IGwDk0AsrwnQAeBQCOA4ZGVxs8BMj9HgDW/41qz/WXBID60QgoKRq7xdxOAI8aAU3tBKAHwB+lyS2AHtwDwPq/Ue25/pIAUD8aASV2AkwxtROA44C9YfYQIA8CAOv/ptw31xkAEgGgdjQCPsxYH4BHSwDGrgRmBsAfRmcA3O8BYP3fmPZ8H0AAsINGQEkydCJgufggaWSlkbErZ6wHgOOAfWH0EKDJzWbGrgjr/0a15/sAAoAdNALK8E4AX5YBTC0BcBywP4wdAhTy03/w0/8SAcBZNAKKnQASxwHD5CFAoa//X2psbE+05/sAAoAdNAJKinYYvBPAmxkAcwGAw4A8YWoGIOgdAKVaBID2fB9AALCARsCecjz4nQAcBwxjuwAcnwEwuv6//brQ1/8lAoDTaAQUOwHU2d5t1jKBAOA+k4cAOb4DwOj6/6bg1/8lAoDTaASUzN4J4MlOAGOHAdED4DyjhwCNu30PAPv/jZr3DACJAGATjYAyeCug/FkGMHcYEMcBu87sIUChzgCw/q8FPP1LBACbaAQUOwEkjgMOWqDHALP+b1x7IR9EALCERsCu7k6ACSNj+zMDYOowIAKA68wdArTV6UOAWP83rr2QDyIA2EUjYDmuaOw3Zob2ZQbA2HHA9AA4z9ASgOu3ALL+b1x7IR9EALCLRkAZ3AngzQyAqR4AjgN2nbEmwGB3AAR//v+U9kI+iABgF42AEjsBTC0BcByw+4wdA+zuDgDz6/8PGhnbM+2FfBABwC4aAWW4EXCZ+8sAZo8Dpg/AZeYOAXJ3BoD1/1qsXcgHEQAsohGwy+hWwL08WAYYN7QEIEn0AbjL6CFA7vYAsP5v3H1aM7Z9IR9IALAv+EbA0HcCRLvWGxubrYDuMnsIkMMBgPV/09oL/UACgH00Apq8E8CHnQAcBxwko4cAOdoEyPp/LdoL/UACgH3GAoBPjYDGlgE8mAGQpMjQTgBmABxm6gwAuTsDwPp/LdoL/UACgH3XSNplYmCfGgHZCWCoEZAmQGcZWwKY3NL95SDW/2vRXugHEgAs6zUC/srE2F41ArITwMi4zAA4LMBDgMqVzzE1Muv/D2sv9AMJAG6gEZCdAGbGJQA4K7RDgMolh6pccriRsVn/3017oR9IAHBD8I2A7ATgOODgBHYIEOv/tVnQGQASAcAVNAKGvhPA2IVAHAfsKlO7ACJXZwBMBgDW/6cs+AwAiQDgChoBZbAPwIMZAGP3AXAcsJsMHgIkR3sAzDUAsv4/TbufDyYAOIBGwB5DfQA+7ATgOOCwlEvC2gLI+n9t2v18MAHAHTQChrwTwNCVwJI4DthBpcEzAOTgMcBmp/8vNTa2h9r9fDABwB00Apq6Flju7wQwOgPATgD3GD0EyL0eABoAa9Pu54MJAO4IvhEw2nGLwZ0Ajs8AdHZIk1vNjE0AcI7ZQ4AM/Tsagtn1f2YApmn388EEAHfQCGh0J4DbMwAShwEFJaAdAGbX/3/N+v/u2v18MAHAETQCdrETwACaAJ1jbAbAxQZAtv/VacFnAEgEANcE3wgoQ30AXuwEMNQIyAyAg4wdAhRYAGD9f7q+zgCQCACuoRFwu8EjgV3vAzB2GBABwDXmDgFyMACw/l+Xdr+fQABwC42AQe8E4D6AIBg9BMitHgDW/2vV7vcTCABuCb4RMOidAMaaAB8tjgN2h9lDgNy6B4D1/1q1+/0EAoBDaARU2DsBTC0BcBywU8weAuTYDADr/3Vq9/sJBAD3BN8IGOpOgMjUlcDiOGCnGD0EyK0eANb/a9Xu9xMIAO4JvhEw2J0ABk8DpA/AHeYOAdrs1CFArP/Xrt3vJxAA3EMjYKA7AaJd642NXXIfgDsC2QHA+n/t+joDQCIAuIhGwFB3AnR2dI9yNYEZAGcY6wFwbQcA6/916vsMAIkA4BwaAcPeCcBxwAEwtATg3A4Ao+v/lxka21vtQT6JAOCmsBsBy3FFY7eaGdrlGQDJXB8ATYDOMHcIkDszAObX/x8wMrbH2oN8EgHATcE3AhrrAwh0JwAzAI4wegiQOz0ArP/Xrj3IJxEA3BR8IyA7ASpGAHCC0UOAHGoCZP2/du1BPokA4CYaAU2dBSC3+wBM9QAQANxg9BAgl2YAWP+vW3uQTyIAOIhGQCnaYXAr4F7uBgBTVwJzHLAjjB4C5EYPAOv/VrQH+SQCgLuCbgQ0uxPA4T4AQ1cCcxywG4wtAUxulia3mRm7T6z/W9H3GQASAcBlYTcCBroTwNgSgDgO2AmGZgCc2gHA+n/dBjoDQCIAuCz4RkBzdwK4vATAccBNZu4QINb/A9Ye9BMJAO4KvhFQhvoAysUHO7sTwOgMAMcB22fqECBHdgCYXf+/nvX/mbUH/UQCgKNoBAx0J0BnjOOAG6xcfKCRcV25BZD1fyvag34iAcBtgTcCmrwTwNEAICkythOAAGDV6GqptZeZsV3ZAUAAsKE96CcSANwWdCMgOwEqRhOgVWYPAXLjHgCj6/+bLjU0tvfag34iAcBtYTcClrvYCVAhZgAsM3QHgCQnZgBY/7emPegnEgDcFnwjYJg7AcwsAdADYFe52EwDoORGDwDT/9YMdAaARABwmslGQB+WACQZ3gmwt5Gxh8VxwM1kbAlgYpMThwARAKxYP+gZABIBwAdGlgE2+tIIaHQngKPLAMaWADgO2CpThwA58PQvsf5vSXuYTyYAuC/wRsAAdwJwHHAjmTsEiPX/gLWH+WQCgPuCbgQMcSeAqW2AEscBW2XsECD7OwCY/remPcwnEwDcF3YjYIg7AXatNzc2fQDWmDsEyIEZAAKALe1hPpkA4DgaAcPbCWD2OGACgBWj+xo8BMh+DwDr/9a0h/lkAoAfgm4ElKE+AGd3AnTGute7msB9AFaUhqb/Jfv3ALD+b1V7mE8mAPgh7EbA7Wa2Akru3gnAYUANY/QQIMsBgOl/m9rDfDIBwA+BNwKa3AngaB8AxwE3itFDgHba7QEgAFgz1BkAEgHAF0E3AnZ3Ahj5Pz+4nQDdswBQN6OHAHWGeg8YWrnyOaZGZv1/bu1hByAAeCD4RkCjOwHcXAIwdRgQPQCWGFoCsL4DoLVM5dIjjAzN+v+82sMOQADwR9CNgMb6AJydAeA44CYxtgRge/3f0Ju/xPT/ArSHHYAA4I+gGwGD2wkwbnIJgOOAa2doCcD2DgAtOsDY0ASAebWHHYAA4I+wGwGN3gng4DKAqRkAjgO2ojS2BGA5ABhampNKtTZfZmjsxmgPOwABwB+BNwIa3Aro4E4Ao4cBsROgXiYPAbK8AyDauVaa2FD9uNuvl3bdX/m4DdMedgACgCdCbwQMbieAwQBAH0C9jB4CNG7/HoBo2y+qH3PDdyofs4Haww5AAPBLuI2Age0E4DjgBjF6CJD9ewCirRUHgHJCrXuzasdsnqHPAJAIAL4JuhHQ3J0ADs4AdHZyHHBDGLsGWA40AUpq3fN/pMkt1Y334DcU7by9svEaql3FIAQAvwTdCChDfQCu7gSIjO0EYAagTsaWACY2Wj8ESOqeRTDSfkdFo3XUuuuTFY3VaO0qBiEA+CXsRkB2AlSDJsB6NXUHwDSt+85WtLEYepyR296qaKux55wmaVcxCAHAI8E3ApoMAAHtBOA44HoZOwTI8g6APY3cerqi7dcN/vnrzlDr3v9XYUWN1q5iEAKAf4JtBIzGbg1sJ4CZJQB6AGpm6hAgB3YATBeN363Ra9aodedHpXJy4Z84uVkj7berdefHzBXXPO0qBiEA+CfcRsDQdgKYuhGQHoBalYYCl/V7AGZSjmtk3Xs0eu0LFG2bZ7Ky3KXWPZ/VoquerNbdn6mnvuZoVzHIaBWDoFZGGwGfdYTb3bfR9uvNvFk7OQNgcgkgklQaGR+7iyY3qRxZUf3ADuwAmE209UqNXvMsaXS1yhUnqFx+gsoVJ0iTWxVt/7WiHdcr2vZLafwe26X6ql3FIAQA//xK3UbARVUP7PwMgGR+J0CF25mGZepK4O5xwKukiQfNjI/djd8rGdgK6FIT4KwmHlC08SJFGy+yXUmTVHIGgMQSgHeKPNspQ42A7ARwbBlg13pjQ5eL6QOojYnvYzmhaOtV1Y8LH7SrGogA4KdwGwFD2gnAccCNYGImJ9ryE3MHRcF17aoGIgD4KdhGQLM7AdyaAeA44GaINlxQ+ZitDRdWPia80a5qIAKAn8I9EdDoTgDHZgA6O6WJTWbGJgDUpvXgNxVtvaLSMU2ECnijXdVABAA/TTUCVs71GQAprDsBzB0GRA9AnUbWnVHZWK27P6Vox02VjQfvtKsaiADgoV4j4LUmxg65EdDJOwFM7QTgOOBaRZsuUbTxu8OPs+XHGln77goqgsfaVQ1EAPBXtXOKPT40ApraCiiF0wfAccD1G73xVWo9+M3BB9h1n0Zueo1UTlRXFHy0tqqBCAD+CrcRkJ0Aw6MHoH6d7Rq58VS17vznvj+1teHbGv3V8xWN322gMHhkvdaMbatqMAKAv4JtBAxqJ4ChK4G5D8CWUiPr3quRm07rNQbOfRpjtHOdRm54pUZueKWinW6f0olatKscjJMA/RXuiYDlLkU7bjFygU8oMwBBHAdcuvt/W+uBr6v1wNdVLj5I5b6/r86+fyAtPUKa2KBo2zWKtv2y9+tqqTNmu1y4o13lYAQATxV5tjNO0mslnVD12F40Au64wcwNfo7tBDB2FoBDxwFHY5Utae5u5zoz41YoGr9L0T2fU+uez9kuBX5oVzkYSwB+C7YRMJidACYPA3LkOOBom5kjbU2NC1jUrnIwAoDfgm0E1I5A7gQwdSWw5EwjYLT1F16NC1jUrnIwAoDfwm0E3G5wK6BDfQBBHAe8677qb7abeECRB0sAQJ/aVQ5GAPBbsCcCBrMToByXJjaaGduVACApWv+VSsdrrf9ypeMBjqi0YYYA4LGgTwTs7QQwMrRDMwBSGMcBj9xxlqKKDniKxm7VyLr3VTIW4JBKzwCQCABNEG4joKkTAV2aAZDMNQK6dBxwZ6dGbnlDBafcdbrjdLZXUhbgkHbVAxIA/BdsI6C5nQCHOLUTwMR98pJ7xwFHW6/SyB0fGGqM1p0fVbTlpxVVBDilXfWABAD/BdsIyE6AITnUAzCldceHNXLjqdKu9f194sQDGrnpNUz9o8naVQ9IAPBfuI2ARu8EcCcAGNsJ4FAPwHStB8/XoqtPUuuB84x8POCpdtUDchKg50I+EfChnQBR5achmzllcFCmrgR2+Va53hN9a9mHVa54msoVT1W5/HiVez1B0djNirb+QtG2qxRtvUrRtmtsVwvUoV31gASAZrhCBgLAVCPgfssdbagqJ4K4E8DYDMD4XWbGrVC0/TpF26+T7vu87VIA29pVD8gSQDOE2whoqg/ApR6AbUZ2eiryIAAAeEjll2YQAJoh2EZAUycCurQTIBq/00y/AwEA8EXlZwBIBICmCLYRMJSdANHG71Y/JmflA75omxiUANAAIZ8IGMpOgNbGiyodL9p+nVr3n1PpmACMaZsYlADQHEGeCGj2TgCHGgE3/VDRph9UNt7I2ndL6lQ2HgCj2iYGJQA0R5iNgL2dAEaGdmgngNTR6M2vq6RxL9r0AyNLCgCMaZsYlADQHOE2AoawE0CSdt2vkZtOG2rGI9p6lUZueWOFRQGoQdvEoASA5gi2ETCUOwEkKdryU43eeOpAMwGt9V/W6HUvZvsf4J+2iUEJAA0RciOgTN0KKKlccoixsQcVbbhQo1efqNY9mRa0jj+5WSNr36WRW1KpM2a8PgCVq/wMAImTAJsmyBMBTe4EUGfc3NjDmNyikd+8Ta31w83noAAAHGtJREFUuTqrXiItf7LKZceqXHKYJCnacbOiDReoteFCRVt+7PaxvwDmYuQMAIkA0DRXSkpNDHzT+tXuBgCDdwK4/sQcbb1SI1untX+M7C1FLWlik72iAFSpbWpglgCaJeCdADcbGTrq7DAyrjGTW3jzB5rlVlMDEwCaxVgjoPM7ASrcI/+wjtRxc9YDQDCM7dklADRIyI2AJk61az1wvvNLAAAarZT0LVODEwCax8gygPMnAm69stsLUKHWXR+vdDwA6NPPtGbsXlODEwCax8iRwJLjfQCSWvd9obKxos2XKtpqrKUCABbiwyYHJwA0T5iNgJJad/2Lok0XDz9QOamROz44/DgAMLh/05qx80x+AQJA8wTbCKhyQqM3vVrR2BB3A5TjGrnpNEWbflhdXQDQn5slvdn0FyEANEzIjYCSpImNGrn+FEU7Bzg4q7NDoze8Uq0Hv1F9XQCwMD+W9CJTh/9MRwBopiAbAadEY7dq9OoTNbLufQvexhdt+blGf/1yRRsvMlwdAMyoI+kDktZozZiRo3/3xEmAzXSFpD8zMbDLJwLupjOm1p0fUbT+i+oc9GaVK56qctkxu1/uM36PWvd/Wa37zla04yZ7tQII2TWSzpd0rtaMXV3nFyYANJPRRsBnHXG7qeErF43fqZH2Ox76fbnkMGnx/tKu+xXtXCeVkxarAxCIXepe6HPbHr9+rjVj62wVRQBopqlGwMoPx3e+EXAe0c510k5rP28AmusBPfINfurX7Voz5tzTRlSWpe0aYECcpFfJwM2A++w1pq+eVv2pewDguNme4ru/1ox5dwkHMwDNdaUCvBoYAIbwoLqX73jzFD8MAkBz0QgIALvbJWmdZnuT9/ApfhgEgOaiERBAiIJ6ih8GAaC5aAQE0EQ8xVeEJsAGoxEQgKceVPcNfaY3eZ7iK8IMQLPRCAjARVNP8TO/yfMUXwsCQLPRCAjAlqmn+Jne5HmKdwABoNloBARgyvSn+Ee+yfMU7zwCQLPRCAhgGNOf4vd8k+cp3nM0ATYcjYAA5jChR55u9/CbPE/xjcYMQPPRCAiEbc+n+Olv8jzFB4wA0Hw0AgLNNtNT/MNv8jzFYxYEgOajERDw30xP8VNv8jzFYyAEgOajERBw32xP8d03eZ7iYQBNgAGgERBwwmxP8bdJWsdTPOrGDEAYaAQEzJvrKf42rRnbaLE24BEIAGGgERCoBk/xaAwCQBhoBAQWhqd4BIMAEAYaAYGHbdDs98XzFI9g0AQYCFONgCuX7tQ5p52jKOLfEZwxobnvi+cpHhAzACEx0gi4eWyJrr9vPz1p//VVDw3MZYNmvy+ep3hgAQgA4TDWCPizdQcTAFC1qaf42e6L5ykeGBIBIBzGGgF/uvZg/elJV5saHs019RQ/05s8T/GAYQSAcPxK0rikxVUPfOsD+3IeAGYy/Sl+pvvieYoHLKIJMCBxkl4q6dkmxn7rmp/opU+82cTQcNv0p/iZ7oufsFgbgDkwAxCWH8pQAPjZuoMJAM2051P8nvfF8xQPeIoAEJaLJf29iYGvuuNA7Zoc0aIRlm09tOdT/J73xfMUDzQQASAsl8vQgUBjE6O65u799bRD7qp6aAxvpqf46ffF8xQPBIgegMDESXq5pGeaGPsPjrlRpz/nZyaGxvx4igfQF2YAwvNDGQoA373psTrtxF9q5dKdJoYPHU/xACpFAAjPRZLeaWLgHbtGde41T9Lrnv4LE8OHYKan+Kk3eZ7iAVSKABCeiyXdJ+kxJgb/r2uP1h895dfaewmzADOY7Sm++ybPUzyAGtEDEKA4ST8l6S9NjX/qU38V8smAsz3FT51ux1M8ACcwAxCmL8tgAPjPa5+gU477tVYsGTf1JWya6yn+Nq0Z22CxNgBYMAJAmC6TdLukQ00Mvn18kb52zRP1mpN+aWL4OmzU3PfF8xQPwHssAQQqTtKPSPobU+MvX7xLZyfnacViJ2cBJtQNQLPdF89TPIDGYwYgXF+WwQCwbXyRvn7NE/XqE63NAmzU3PfF8xQPIGjMAAQsTtKfSTrJ1PjLFu/S5045X/vvvc3E8FNP8bPdF89TPADMgRmAsH1c0hdNDb59fJHO+t4afewPLtRIa6CgOfUUP9t98TzFA8CAmAEIWJyko5J+I+kQk1/nlcdfp9f/9lUz/dX0p/iZ7ovnKR4ADCEABC5O0ndI+qDJrxFJevvJl/3oBUfddrl4igcAJxAAAhcn6Sp1n8KXG/5S90l6SpFn9xj+OgCABWjZLgB2FXm2QdK/1/ClHiPp7DhJ+TcHAA7gxRiS9CFJO2r4Oi+UoYuIAAD9IQBARZ7dru6OgDq8N07S59T0tQAAsyAAYMoH1V2nN21U0jfiJDV2/gAAYH4EAEiSijzbIuk9NX25VZIuipP0WTV9PQDAHggAmC6TdH1NX2ulpO/ESfq8mr4eAGAaAgAeUuTZhKS31/glV0j6dpykL6zxawIARADAHoo8+6akc2r8kssknR8n6Utr/JoAEDwCAGbyl5Lur/HrLZX09ThJX17j1wSAoBEA8AhFnq1XNwTUabGkc+Mk/fOavy4ABImjgDGrOEnPlfTfLXzpCyS9vsizuy18bQAIAjMAmMtfqN6lgCkvkfSrOElPsfC1ASAIzABgTnGS/qGk89S91M+GL0g6vcizTZa+PgA0EjMAmFORZ/8p6SyLJbxK3dmAky3WAACNwwwA5tW7we98STa36pWSPinpDGYDAGB4BAAsSJyk+0j6maSjLJeyWdLnJP1LkWd3Wa4FALxFAMCCxUl6jKSfqHuCn23j6vYHfKTIsxtsFwMAviEAoC+9w3q+JmnEdi09paRvSPpQkWc/tl0MAPiCAIC+xUn6akn/IXs7A2bzI0mfkFT0bjcEAMyCAICBxEn6RkmfsV3HLCYk/VTSRZK+K+mnvYuOAAA9BAAMLE7Sv5b0z7brWIAtki5WNwxcVORZXVceA4CzCAAYSpykZ0h6j+06+nS3pN9IuneuXywjAGgyAgCGFifpP0p6r+06DNglqWO7CADWbJV0taQrJF2p7nLiOrslVYcAgErESfpnkj4rd3YHAEDVOpI+KundRZ7ttF3MsAgAqEycpC+T9FVJy2zXAgAGXSfptCLPrrJdyDAIAKhUnKRPl/QtSfvZrgUADNol6X8UefY124UMigCAysVJepSkb0p6vO1aAMCgByQdU+TZvbYLGQS3AaJyRZ7dLOlpkr5ouxYAMGi1uneTeIkZABgVJ+n/VPd0vqW2awEAQ15V5Fluu4h+MQMAo4o8+1dJvy3pJtu1AIAhp9kuYBAEABhX5Nk16i4J/LvlUgDAhKfZLmAQLAGgVnGSnqzueQFH2a4FACr0W0WetW0X0Q9mAFCrIs++L+k4SWequ40GAJrgRNsF9IsAgNoVeTZW5Nk/SDpB0mW26wGACqyyXUC/CACwpsiz6yQ9V9IrJd1ouRwAGIZ3pwLSAwAnxEk6IunVks6QdITdagCgL+OS9i7ybNx2If0gAMApcZIukpRKepekgyyXAwALcUWRZyfZLqJfLAHAKUWe7Sry7NOSHivpTyX9zG5FADCv79kuYBDMAMB5cZI+VdJfSPof4qZBAG5pS3pykWdbbRfSLwIAvBEn6T7qzgqcqu6Wm8hqQQBCV0p6QZFnP7BdyCAIAPBSnKQHS3q5pFdIep6kRXYrAhCgTxV59ibbRQyKAADv9WYGXibppZKeI+kwuxUBaLhJSR+S9F7fOv+nIwCgcXqzA8+W9Kze/x4vadRqUQCa4kZJryny7Ke2CxkWAQCNFyfpMnXvHnispCP3+N/DRTgAMLe1kq6UdLmkTxd5tsNyPZUgACBocZJG6u4sWC5pxbT/XSFpL7FVFgjZVklXF3l2v+1CTCAAAAAQIJ5uAAAIEAEAAIAAEQAAAAgQAQAAgAARAAAACBABAACAABEAAAAIEAEAAIAAEQAAAAgQAQAAgAARAAAACBABAACAABEAAAAIEAEAAIAAEQAAAAgQAQAAgAARAAAACBABAACAABEAAAAIEAEAAIAAjdouADAhTtJRSYdLWiVphaS9e79WSFokaWvv15ber62Sbi/ybKOVgoGGiJP0UZIO1e4/c1P/O6Hdf+a2SNooaW2RZ7usFBywqCxL2zUAA4uTNJJ0nKQTJR097deR6r7R9+s+STdO+3WdpEuLPNtSScFAQ8RJukLSsyUdq91/9vYfYLgJSbdp95+9KyVdXeQZb1KGEADgnThJj5Z0cu/X8yXtZ/hLTki6QtL3JX1P0uVFno0Z/pqAU+IkXSLpmZJeoO7P3tNlfhb5QUkXq/uz9/0iz643/PWCQgCAF+IkPUrSaZJeJekIu9VoTNI3JJ0t6cIizyYs1wMYESfpiKRY0qslvVzSMrsVaZ2kL0g6u8izGyzX4j0CAJwVJ+kqSa9U943/mZbLmc19kr4k6fNFnl1luxigCnGSPkXdn7tTJR1guZzZ/EzS5yV9qcizB20X4yMCAJwTJ+mBkv5G0hskLbdcTj8ulXRmkWcX2i4EGEScpC+U9C51l9Z8sUNSJukjRZ7dYbsYnxAA4Iw4SY+Q9A5Jr5W0xG41Q7lS0pmS/pMGJriu10j7+5L+XtJvWy5nGOOS/kPSh4o8u9V2MT4gAMC6OElXSzpL0uvUrK2p10l6a5FnF9kuBJhJnKRrJH1S0lNs11KhSXWDwDuLPFtvuxiXEQBgTe/J4/WSPihpteVyTPqKpLcVeXaX7UIASYqT9DGS/lnd5r6m2qDucsbnijzr2C7GRQQAWBEn6QmSPiO/pxz7sUXSeyR9kl0DsCVO0pa6vTVnSdrHcjl1uVLSnxd59nPbhbiGAIBa9V6A3iXpDEkjlsux4QpJf1zk2W9sF4KwxEl6sLo7Vp5ruxYLOuqGnvcUeTZpuxhXEABQm9604xckvch2LZZtlPS6Is++brsQhCFO0peou2XO9KFZrrtY0qlFnt1tuxAXEABQizhJn6fu08eBtmtxyCckvb3Is3HbhaCZendivF/S2yVFlstxxX2SEppzCQCoQZykb5b0MYU55T+fn0j6vSLPHrBdCJolTtJ9JP2XpDW2a3FQR91dAh+xXYhNBAAYFSfpmeruL8bsbpD04iLP1tkuBM0QJ+lBkr6j7kU9mN1HJf1tqOd1EABgRO8M8c9K+jPbtXjiDnVDwK9tFwK/xUn6eEmFutdhY36fl/T6EHfnEABQud6tYV+S9ArbtXjmQUkvK/LsJ7YLgZ/iJH2apAskPdp2LZ75lqQ/KvJsh+1C6kQAQKV6T/7niDf/QW2W9Lwiz662XQj8EifpMZJ+JGmV7Vo89W1JLw9pJqBluwA0zmfFm/8wVkq6ME7Sx9ouBP6Ik/Rwddf8efMf3Esl/VvvhNIgEABQmV7DH2v+w9tfUhEnqavXsMIhcZLup+6b/8G2a2mAV6t7RHIQCACoRG+rH93+1TlS0gVxkq60XQjcFSfpcnWnro+2XUuDvC1O0rfbLqIOBAAMrXfIz8ds19FAx0v6v7aLgNM+K+kk20U00AfiJI1tF2EaTYAYSu9436vFCX8mvanIs0/ZLgJuiZP0tZL+zXYdDbZe0vFNvsWTAICB9S72uVCc7W/auKRnF3l2he1C4IY4SZ8k6eeSltmupeEukXRyUy8QYgkAw3iXePOvw2JJX4mT9FG2C4F9cZIuk/RV8eZfhzWS3me7CFMIABhInKQnqHulL+pxpKSP2y4CTjhT0jG2iwjI38VJ+gzbRZjAEgD61tsn+2NJv227lsCUkp5b5NlltguBHXGSHi/pCnGxVt1+Iemkpi0FMAOAQbxevPnbEEn6dO+0RQSmF7w/I978bThB0p/bLqJqBAD0JU7S1ZI+aLuOgB0n6XTbRcCKP5PUyKloT7w/TtL9bRdRJQIA+nWWpNW2iwjc+5r2QoS5Ebyd8ChJH7ZdRJUIAFiwOEmPkPQ623VAKyX9je0iUKu/krSv7SKgV/WuW24EAgD68Q5Jo7aLgCTpjb2nQjRc7zholn3c0JL0d7aLqAoBAAsSJ+mBkl5ruw48ZIWkt9guArU4Xd3pZ7gh6d2+6D0CABbqbyQtsV0EdvMmLgtqtt6hP2+1XQd2s0hSIy4LIgBgXnGSrpL0Btt14BH2Ed+Xpnu9pEfbLgKP8Lo4Sb3/vhAAsBCvlLTcdhGY0ettFwCj+P66aamkxHYRwyIAYCFOs10AZnV0nKRPt10Eqhcn6XGSnmK7DszK+9dFAgDmFCfpUZKeabsOzMn7FyLMiO+r206Ik/RY20UMgwCA+fAi5L4/iZN0se0iUJ3ecc/eTzEH4DW2CxgGAQDzeZXtAjCv1ZJeYrsIVOqFkg6wXQTmdWrvjgYvEQAwqzhJj5Z0hO06sCC/a7sAVOrFtgvAghyk7v0cXiIAYC4n2y4AC8b3qlmeb7sALJi3P3sEAMzF23/YAXp8nKQH2y4Cw+udu0H3vz+8fZ0kAGBGvXWt59uuA33x9oUIu1kjXpt9sqbXtOkd/pFhNsdJ2s92EegLAaAZnm+7APRlpaQTbRcxCAIAZuPlP+jAPc12AagEP3v+8fJ7RgDAbI62XQD69jiftyThIfzs+cfL7xkBALPx8h904PaSdKjtIjC4XgOg95fMBMjL10sCAGbj5T9o6CjbBWAo/Nz5ycvvGwEAjxAn6aikI23XgYE83nYBGIqXbyTQYXGS7mW7iH4RADCTwyUtsl0EBvJY2wVgKMzg+CmShw9NBADMZJXtAjAwvnd+4/vnL+++dwQAzGSF7QIwsJW2C8BQ+P75y7vXTQIAZrK37QIwMN5A/Mb3z1/evW4SADAT7/4h4yG8gfiN75+/vHvdJABgJt5NZeEhvIH4je+fv7x73SQAYCbsAPDXYtsFYCh8//zl3esmAQAz2Wq7AAxss+0CMBS+f/7y7nWTAICZePcPGQ/hDcRvfP/85d3rJgEAM9liuwAMjDcQv/H985d3r5sEAMzEu3/IeAhvIH7j++cv7143CQCYiXdTWXgIbyB+4/vnL+9eNwkAmMnttgvAwO6wXQCGws+ev7z73hEA8AhFnm2UdJ/tOjCQm20XgKHcaLsADGRzkWf32C6iXwQAzIYXIj/dZLsADIWfOz95+X0jAGA2Xv6DDlwp6RbbRWAobUk7bReBvnn5ekkAwGy8/AcduDuLPNtuuwgMrsizjghxPvLy9ZIAgNlcZ7sA9O3XtgtAJfjZ84+X3zMCAGZzqaQJ20WgLxfbLgCVuMR2AehLKU+/ZwQAzKjIsy2SrrBdB/ryfdsFoBI/sF0A+vLLIs8esF3EIAgAmAtvKP7YLAJbIxR59mtJ99quAwvm7eskAQBz+Z7tArBgPyzybNJ2EajMxbYLwIJ5+zpJAMBcLpc0ZrsILIi3L0KYEcsAftgl6Ue2ixgUAQCzKvJsTNI3bNeBeXUkfc12EajU10UTrg8u6PVLeYkAgPmcbbsAzOsHRZ5xB0CDFHl2n6Tv2K4D8/L69ZEAgPlcKO4FcN3nbRcAI/i+um2jpPNtFzEMAgDmVOTZhKQv2a4Ds9om6TzbRcCIb0jaZLsIzOorRZ55fWwzAQALwZOIu84r8sy7e8gxv14Pzldt14FZef+6SADAvIo8u0rdkwHhnk/YLgBGfVLdk+bglp8XeXa57SKGRQDAQp1puwA8woVFnl1puwiYU+TZtWInjosa8XpIAMCCFHl2oSTebNzSiBchzIvvs1saE8oIAOgHL0TuuKTIM5ZlAlDk2c8lFbbrwEPOKvKsEcsyBAD04z/l6bWXDfR+2wWgVny/3XCzGtSYSQDAgvVS71tt1wF9s8iz79ouAvUp8uxHks6xXQf0V026c4MAgL4UeXaRpK/YriNgY5LebLsIWPFXkrw9drYB/qvIs2/ZLqJKBAAM4m3ihciWs4o8+43tIlC/Is/ulPSPtusI1HZJb7FdRNUIAOhbkWd3SXqP7ToCdIukD9suAlb9L0m/tF1EgM4s8myt7SKqRgDAoD4p6QrbRQSkI+kNvh89iuH01p9Tda+hRT2ukfTPtoswgQCAgfTuCPhjdS/EgHnvL/Ls+7aLgH29bYF/Z7uOQGyR9EdFno3bLsQEAgAG1luLfp3tOgLwA0nvtV0EnPIxSd+0XUQA3lDk2U22izAlKstGnGcAi+Ik/Rc1sEHGEfdKOr7Is3tsFwK3xEm6WtLVkg6xXUtDfa7IszfaLsIkZgBQhbdL+ontIhpoQtKpvPljJkWePSDpTyQ1cnrasisVwJknBAAMrbc+9nuSbrBdS4OUkl7Luj/mUuTZZZJepW6TKKpxq6SX9a5jbjQCACrRexp5saQ7bNfSEH9d5NkXbBcB9xV5do6kN9muoyHukRQXeXav7ULqQABAZYo8W6duCHjQdi2e+1CRZx+3XQT8UeTZp0Wj6LA2SfrdIs9us11IXWgCROXiJH2GpO9IWmm7Fg/9a5Fnb7BdBPwUJ+knxFHRg9iq7rT/JbYLqRMzAKhckWc/kfQ8dTvYsXAf4s0fwyjy7C1iJqBf90s6ObQ3f4kZABgUJ+lj1b3H/EjbtTiuVHfNn2l/VCJO0r9Q99hgHvLmtk7dNf8bbRdiAwEARsVJeoCkCyQdb7sWR02o2+1Pwx8qFSfpH0s6W9Ji27U46jpJL+5dshQk0iGM6u1hf56kc23X4qB71X0B4s0flSvy7KuSXiAp2De4OXxD0nNCfvOXmAFAjeIkPV3SR8UTidQ93pdDfmBcnKT7Sfq8pJfYrsUBuyS9s8izj9kuxAXMAKA2RZ59StKzJQWzzWYGHUnvk/RC3vxRhyLP7pf0MknvVHfJKVTrJK3hzf9hzACgdnGSPkrSxyX9qaTIbjW1ukXdy0U43Q9WxEn6TEmZpGNs11KzL0h6S5FnnFEyDQEA1sRJ+mxJn5Z0nO1aDBuTdJakDxd5ttN2MQhbnKSL1D3n/gxJyy2XY9p1kv6yyLMf2i7ERQQAWBUn6Yik09WdFm/iwUHflPTm3tXJgDPiJD1U0ickvcJ2LQZsVfc8hH8p8izkZY85EQDghDhJ95f0t5LeIGmF5XKqcImk9xd59l3bhQBziZP0dyS9W9Lv2K6lAtsl/aukjxR5dpftYlxHAIBTenecv0Xdy032sVzOIC6UdGaRZ5faLgToR68/4F3qNgz6ZrOk/y3p40WerbddjC8IAHBSnKQr1Z0NeL2koy2XM59tks6T9Ikiz660XQwwjDhJj1c3hJ8i92fjbpb0b5I+U+TZJtvF+IYAAOfFSfp0SadJ+hNJqy2XM6Wj7l7+z0s6r8izrZbrASoVJ+kydfsDTlP3QKERuxU9ZIOkr0j6fJFnP7ZdjM8IAPBGnKSL1T3M5HclnSzp8TWXsFnSDyV9T9LXijy7o+avD1gRJ+mB6s4IvEDdkz3rXp67RdL31b1l9FvspqkGAQDeipP0YHWDwMmSTpR0lKQlFX6JO9XdRnSxui8+VxR5Nlnh+IB3ejt3nqruz93zJR0r6WBVd6bHTnXf8K9U9+fu+0We3V7R2JiGAIDGiJO0JelwdXsGjpb0OEmr1F3H3Lv3a4WkRepuE9oqaUvv11ZJt0u6sffrJqb1gYWJk3S5ujNyUz97h2r3n7mp/53Q7j9zWyRtVPcNf+pnby1Bux4EAAAAAsRdAAAABIgAAABAgAgAAAAEiAAAAECACAAAAASIAAAAQIAIAAAABIgAAABAgAgAAAAEiAAAAECA/j80cYqyvX4NUgAAAABJRU5ErkJggg==;" vertex="1" parent="1">
                    <mxGeometry x="204.5" y="90" width="91" height="91" as="geometry"/>
                </mxCell>
                <mxCell id="4" value="Tcommerce" style="text;html=1;strokeColor=none;fillColor=none;align=center;verticalAlign=middle;whiteSpace=wrap;rounded=0;fontColor=#4D4D4D;fontSize=15;fontStyle=1" vertex="1" parent="1">
                    <mxGeometry x="217.25" y="180" width="65.5" height="30" as="geometry"/>
                </mxCell>
            </root>
        </mxGraphModel>
    </diagram>
</mxfile>